HIERARCHY
ROOT pelvis
{
  OFFSET 0 100 0
  CHANNELS 6 Xposition Yposition Zposition Zrotation Xrotation Yrotation
  JOINT pelvis_right_femur
  {
    OFFSET -10.78128 -3.44521 -0.5502486
    CHANNELS 3 Zrotation Xrotation Yrotation
    JOINT right_femur_tibia
    {
      OFFSET -0.8047443 -44.0398 -0.1307829
      CHANNELS 3 Zrotation Xrotation Yrotation
      JOINT right_tibia_foot
      {
        OFFSET 3.006224 -47.83518 -5
        CHANNELS 3 Zrotation Xrotation Yrotation
        End Site
        {
          OFFSET 0 -5 15
        }
      }
    }
  }
  JOINT pelvis_left_femur
  {
    OFFSET 10.78128 -3.44521 -0.5502486
    CHANNELS 3 Zrotation Xrotation Yrotation
    JOINT left_femur_tibia
    {
      OFFSET 0.8047443 -44.0398 -0.1307829
      CHANNELS 3 Zrotation Xrotation Yrotation
      JOINT left_tibia_foot
      {
        OFFSET -4.370144 -48.10324 -4.275266
        CHANNELS 3 Zrotation Xrotation Yrotation
        End Site
        {
          OFFSET 0 -5 15
        }
      }
    }
  }
  JOINT pelvis_spine1
  {
    OFFSET 0 6.468898 -3.129235
    CHANNELS 3 Zrotation Xrotation Yrotation
    JOINT spine1
    {
      OFFSET 0 23.15396 4.99043
      CHANNELS 3 Zrotation Xrotation Yrotation
      JOINT spine2
      {
        OFFSET 0 20.79997 -5.064912
        CHANNELS 3 Zrotation Xrotation Yrotation
        JOINT neck
        {
          OFFSET 0 14.38658 9.616178
          CHANNELS 3 Zrotation Xrotation Yrotation
          End Site
          {
            OFFSET 0 20 0
          }
        }
      }
      JOINT right_manubrium
      {
        OFFSET -5.722621 16.35077 3.967754
        CHANNELS 3 Zrotation Xrotation Yrotation
        JOINT right_clavicle
        {
          OFFSET -13.16364 1.694482 -4.693211
          CHANNELS 3 Zrotation Xrotation Yrotation
          JOINT right_humerus
          {
            OFFSET -28.5034 -0.3100689 -2.792744
            CHANNELS 3 Zrotation Xrotation Yrotation
            JOINT right_radius
            {
              OFFSET -25.15693 0.02248979 -1.271978
              CHANNELS 3 Zrotation Xrotation Yrotation
              End Site
              {
                OFFSET -15 0 0
              }
            }
          }
        }
      }
      JOINT left_manubrium
      {
        OFFSET 5.722621 16.35077 3.967754
        CHANNELS 3 Zrotation Xrotation Yrotation
        JOINT left_clavicle
        {
          OFFSET 13.16364 1.694482 -4.693211
          CHANNELS 3 Zrotation Xrotation Yrotation
          JOINT left_humerus
          {
            OFFSET 29.39168 -1.063119 -2.237045
            CHANNELS 3 Zrotation Xrotation Yrotation
            JOINT left_radius
            {
              OFFSET 24.59957 -0.9528479 0.9047498
              CHANNELS 3 Zrotation Xrotation Yrotation
              End Site
              {
                OFFSET 15 -0 -0
              }
            }
          }
        }
      }
    }
  }
}
MOTION
Frames: 7
Frame Time: 0.0416666666667
0 103.5113 0 1.442136 -1.943811 -0.0330463 2.862328 -16.86802 8.334063 -0 38.41266 -0 -4.209568 -17.56381 -3.328693 -7.492492 11.17963 -24.03742 -0 4.955137 -0 8.212669 -17.75241 27.73743 -4.226316 -2.976184 4.60396 2.237712 8.662824 -6.791261 1.568994 22.85431 7.096549 3.439962 -23.14756 9.664298 6.688574 -18.78965 11.25883 84.18419 34.82949 -17.3534 -0 0 16.49625 -7.514218 7.749703 3.863405 6.287288 -18.41193 -1.721573 -93.89362 26.46906 20.4854 0 0 -13.31874 8.10639 17.39953 3.414115
0.381732 103.2466 1.429596 1.279115 -1.484213 -0.07354589 3.274071 -17.72238 8.763236 -0 38.30924 -0 -4.178621 -17.20029 -3.325245 -7.49591 11.0066 -24.05923 -0 4.7905 -0 8.445106 -17.97352 27.80959 -4.090263 -2.938424 4.713263 2.255425 8.647877 -6.804025 1.651323 22.6489 7.093177 3.378418 -23.58391 9.866624 6.641642 -18.95003 11.22654 84.25865 35.00196 -17.43566 -0 0 16.6532 -7.047539 7.832181 3.758991 6.330555 -18.39937 -1.509921 -94.15701 26.67124 21.00634 0 0 -13.69434 8.20181 17.2705 3.720427
0.7382712 102.8617 3.230235 0.9037159 -0.4293613 -0.003464507 3.861466 -20.93715 8.114271 -0 34.659 -0 -4.705856 -14.9316 -2.912028 -7.225648 11.54632 -23.0127 -0 4.408418 -0 8.029425 -19.25955 26.65488 -3.812338 -2.716307 4.672081 2.362849 8.64442 -7.070512 1.636297 22.20477 7.258926 3.544822 -24.28789 9.961402 6.252761 -18.83921 11.12289 84.93917 35.07732 -18.34076 -0 0 15.89223 -7.209791 7.976379 3.736302 6.814967 -19.34596 -1.341154 -93.46546 26.31224 20.30652 0 0 -15.65954 9.063863 16.98573 3.070049
1.067803 102.3767 5.323748 0.5238195 0.4639209 0.1913272 4.454033 -23.57294 7.794928 -0 31.95335 -0 -5.157694 -13.10669 -2.659451 -6.958384 12.04669 -22.24499 -0 4.2399 -0 7.355388 -20.38976 25.63221 -3.513923 -2.499804 4.604743 2.439911 8.573817 -7.277333 1.652212 21.8375 7.407848 3.677407 -24.89504 10.09628 5.948721 -18.71867 10.99817 85.49145 35.15084 -19.10359 -0 0 15.30558 -7.189546 8.120331 3.647274 7.16975 -20.02196 -1.158029 -93.14021 26.45599 20.00076 0 0 -17.21915 9.317953 16.83538 3.158969
1.367913 101.804 7.778755 0.06898854 1.427334 0.5068002 5.156928 -26.44008 7.46483 -0 28.94253 -0 -5.681937 -11.05767 -2.36409 -6.632796 12.64509 -21.3077 -0 4.39191 -0 6.611924 -21.40314 24.43237 -3.15739 -2.268323 4.481786 2.5465 8.539641 -7.528534 1.653108 21.41386 7.560344 3.823077 -25.51461 10.20686 5.641811 -18.54781 10.88227 86.10606 35.26973 -19.93677 -0 0 14.5928 -7.233017 8.316201 3.599456 7.538375 -20.75672 -0.9854085 -92.65171 26.38031 19.5065 0 0 -18.89858 9.765325 16.54751 2.999718
1.639093 101.1638 10.6226 -0.4454581 2.347711 0.9343752 5.941755 -29.17724 7.233001 -0 26.07569 -0 -6.229016 -9.046776 -2.095747 -6.260407 13.29529 -20.33797 -0 4.95741 -0 5.696331 -22.20122 23.12357 -2.748105 -2.029918 4.297877 2.663945 8.513474 -7.788976 1.647115 20.98675 7.707029 3.966085 -26.07274 10.29675 5.376501 -18.32174 10.77128 86.70651 35.41858 -20.75284 -0 0 13.8461 -7.288129 8.553659 3.572716 7.855356 -21.42271 -0.8349503 -92.16087 26.29069 18.98844 0 0 -20.45953 10.13667 16.19828 2.893614
1.88371 100.4881 13.90485 -1.031639 3.206536 1.457073 6.823944 -31.73757 7.074145 -0 23.30287 -0 -6.811921 -7.064501 -1.844665 -5.829241 14.00014 -19.28492 -0 6.134794 -0 4.582028 -22.68058 21.64411 -2.269621 -1.786362 4.037509 2.798302 8.510995 -8.065465 1.624107 20.55406 7.845362 4.104322 -26.54563 10.3459 5.154315 -18.02131 10.67351 87.30339 35.59095 -21.55652 -0 0 13.03195 -7.39851 8.844778 3.591929 8.105732 -22.02275 -0.7283285 -91.62037 26.101 18.38838 0 0 -21.88293 10.47795 15.74457 2.757082
